<?xml version="1.0" encoding="UTF-8" standalone="no"?>
<!-- Generator: Adobe Illustrator 15.1.0, SVG Export Plug-In . SVG Version: 6.00 Build 0)  -->

<svg
   xmlns:dc="http://purl.org/dc/elements/1.1/"
   xmlns:cc="http://creativecommons.org/ns#"
   xmlns:rdf="http://www.w3.org/1999/02/22-rdf-syntax-ns#"
   xmlns:svg="http://www.w3.org/2000/svg"
   xmlns="http://www.w3.org/2000/svg"
   xmlns:sodipodi="http://sodipodi.sourceforge.net/DTD/sodipodi-0.dtd"
   xmlns:inkscape="http://www.inkscape.org/namespaces/inkscape"
   version="1.1"
   id="Calque_1"
   x="0px"
   y="0px"
   width="110mm"
   height="109.05346mm"
   viewBox="0 0 389.76379 386.4099"
   enable-background="new 0 0 42.52 42.52"
   xml:space="preserve"
   inkscape:version="0.91 r13725"
   sodipodi:docname="plumes.svg"><metadata
     id="metadata20"><rdf:RDF><cc:Work
         rdf:about=""><dc:format>image/svg+xml</dc:format><dc:type
           rdf:resource="http://purl.org/dc/dcmitype/StillImage" /><dc:title></dc:title></cc:Work></rdf:RDF></metadata><defs
     id="defs18" /><sodipodi:namedview
     pagecolor="#ffffff"
     bordercolor="#666666"
     borderopacity="1"
     objecttolerance="10"
     gridtolerance="10"
     guidetolerance="10"
     inkscape:pageopacity="0"
     inkscape:pageshadow="2"
     inkscape:window-width="640"
     inkscape:window-height="480"
     id="namedview16"
     showgrid="false"
     fit-margin-top="5"
     fit-margin-left="5"
     fit-margin-right="5"
     fit-margin-bottom="5"
     units="mm"
     inkscape:zoom="0.69379115"
     inkscape:cx="169.77086"
     inkscape:cy="113.7654"
     inkscape:current-layer="Calque_1" /><path
     d="m 82.973023,323.88933 c -26.256413,15.35499 -47.003988,28.59051 -52.503884,32.60588 -12.269686,8.9787 -12.752604,12.1892 -12.752604,12.1892 l 22.3573,-10.62419 c 0,0 12.788376,-8.37951 42.881302,-27.2759 -0.617061,0.17886 -1.377209,0.29511 -1.985328,0.51869 l 2.003214,-7.41368 z M 370.25539,233.72681 c -5.0438,-1.15364 -36.06679,1.73492 -36.06679,1.73492 0,0 0.72437,-1.44875 -7.92343,-1.44875 -83.72362,0 -173.14388,35.91477 -173.14388,35.91477 l -7.22588,15.63222 1.43981,-13.60218 c 0,0 -2.88856,6.08119 -20.92643,12.73472 -18.02893,6.66247 -30.298617,25.49626 -30.298617,25.49626 0.733319,-2.8975 -7.93237,-8.3974 -7.93237,-8.3974 10.096557,9.84616 -3.61294,16.21352 -3.61294,16.21352 l -1.600783,5.89338 c 32.38231,-18.95899 73.12626,-41.1732 104.04194,-53.38923 81.04968,-32.04249 151.50201,-32.99938 151.50201,-32.99938 0,0 -59.61351,3.27311 -131.04955,28.17914 -38.24887,13.3339 -87.69428,41.99596 -124.503343,65.1134 16.32083,-4.71291 44.902403,-2.38776 44.902403,-2.38776 -5.77712,-0.57234 -18.02893,-2.60239 -18.02893,-2.60239 14.43388,0 43.99917,-3.47879 43.99917,-3.47879 -7.21693,0.27723 -41.84392,1.15364 -41.84392,1.15364 12.99406,-2.60239 44.74143,-3.46986 73.59129,-10.41851 28.84986,-6.94865 49.75841,-24.32474 57.69972,-28.08971 7.9592,-3.76497 31.74737,-12.45749 31.74737,-12.45749 -12.26075,-2.8975 -70.68484,1.16258 -70.68484,1.16258 28.13442,-4.92755 71.40921,-3.76497 71.40921,-3.76497 0,0 27.41005,-5.21372 40.40412,-12.16237 12.98512,-6.9397 24.53043,-8.69252 24.53043,-8.69252 -10.82988,-4.05114 -56.2778,-2.60239 -56.2778,-2.60239 33.90261,-4.05114 69.97835,0 69.97835,0 15.15825,-2.30727 20.93538,-11.57213 15.87368,-12.73471 z"
     id="path3"
     inkscape:connector-curvature="0"
     style="opacity:0.5;fill:#919191" /><radialGradient
     id="SVGID_1_"
     cx="28.485399"
     cy="5.875"
     r="25.5077"
     gradientUnits="userSpaceOnUse"
     gradientTransform="matrix(8.9429201,0,0,8.9429201,5.5541644,2.7758968)"><stop
       offset="0"
       style="stop-color:#989CCC"
       id="stop6" /><stop
       offset="0.3212"
       style="stop-color:#7078B6"
       id="stop8" /><stop
       offset="0.8485"
       style="stop-color:#344793"
       id="stop10" /><stop
       offset="1"
       style="stop-color:#304187"
       id="stop12" /></radialGradient><path
     d="m 82.973023,252.41751 c -26.256413,39.84965 -47.003988,74.20835 -52.503884,84.64474 -12.269686,23.2963 -12.752604,31.63111 -12.752604,31.63111 l 22.3573,-27.57103 c 0,0 12.788376,-21.74023 42.881302,-70.78321 -0.617061,0.46503 -1.377209,0.77803 -1.985328,1.3325 l 2.003214,-19.25411 z M 370.25539,18.426007 c -5.0438,-3.00482 -36.06679,4.50723 -36.06679,4.50723 0,0 0.72437,-3.75603 -7.92343,-3.75603 -83.72362,0 -173.14388,93.185233 -173.14388,93.185233 l -7.22588,40.58297 1.43981,-35.32453 c 0,0 -2.88856,15.78425 -20.92643,33.06197 -18.02893,17.28667 -30.298617,66.14184 -30.298617,66.14184 0.733319,-7.521 -7.93237,-21.80284 -7.93237,-21.80284 10.096557,25.54992 -3.61294,42.09432 -3.61294,42.09432 l -1.600783,15.31028 c 32.38231,-49.21288 73.12626,-106.85 104.04194,-138.5616 81.04968,-83.160213 151.50201,-85.664233 151.50201,-85.664233 0,0 -59.61351,8.5226 -131.04955,73.144143 -38.24887,34.6091 -87.69428,108.99631 -124.503343,168.99436 16.32083,-12.22497 44.902403,-6.17061 44.902403,-6.17061 -5.77712,-1.49347 -18.02893,-6.76085 -18.02893,-6.76085 14.43388,0 43.99917,-9.03235 43.99917,-9.03235 -7.21693,0.74226 -41.84392,3.00482 -41.84392,3.00482 12.99406,-6.7519 44.74143,-8.99658 73.59129,-27.04339 28.84986,-18.03787 49.75841,-63.13701 57.69972,-72.89374 7.9592,-9.77461 31.74737,-32.31077 31.74737,-32.31077 -12.26075,-7.521 -70.68484,2.99588 -70.68484,2.99588 28.13442,-12.77049 71.40921,-9.76567 71.40921,-9.76567 0,0 27.41005,-13.530643 40.40412,-31.559563 12.99406,-18.02893 24.53043,-22.54511 24.53043,-22.54511 -10.82988,-10.51687 -56.2778,-6.7519 -56.2778,-6.7519 33.90261,-10.51688 69.97835,0 69.97835,0 15.15825,-6.03647 20.93538,-30.08398 15.87368,-33.07986 z"
     id="path14"
     style="fill:url(#SVGID_1_)"
     inkscape:connector-curvature="0" /></svg>